<svg width="396" height="338" viewBox="0 0 396 338" fill="none" xmlns="http://www.w3.org/2000/svg">
<path d="M10.5029 292.931L7.57898 53.1688L49.245 149.659L123.074 2L180.091 113.84L203.482 33.4323L218.833 113.84L277.312 2L359.182 149.659L386.228 53.1688V292.931L277.312 336.79H123.074L10.5029 292.931Z" fill="#D4A600" stroke="white"/>
<path d="M77.7535 203.02L48.5142 148.928L123.074 2L179.36 113.84L107.724 203.02H77.7535Z" fill="#A68100"/>
<path d="M283.891 203.02L218.833 113.84L277.312 2L359.182 148.928L310.206 203.02H283.891Z" fill="#A68100"/>
<path d="M77.7535 203.02L48.5142 148.928L123.074 2L179.36 113.84L107.724 203.02H77.7535Z" stroke="white"/>
<path d="M283.891 203.02L218.833 113.84L277.312 2L359.182 148.928L310.206 203.02H283.891Z" stroke="white"/>
<path d="M58.7477 256.382V229.336L67.5195 221.295H84.3321L98.9518 235.184V256.382L84.3321 271.002H67.5195L58.7477 256.382Z" fill="#C00000" stroke="white"/>
<path d="M335.059 256.382V229.336L326.128 221.295H309.009L294.124 235.184V256.382L309.009 271.002H326.128L335.059 256.382Z" fill="#C00000" stroke="white"/>
<path d="M26.5844 246.148V200.096L16.3506 174.512L1 188.401V232.991L16.3506 257.844L26.5844 246.148Z" fill="#64A100"/>
<path d="M207.137 215.447H185.208L164.74 232.991V273.195L185.208 295.855H207.137L226.874 273.195V232.991L207.137 215.447Z" fill="#64A100"/>
<path d="M365.03 246.148V200.096L383.304 174.512L395 188.401V232.991L380.38 257.844L365.03 246.148Z" fill="#64A100"/>
<path d="M26.5844 246.148V200.096L16.3506 174.512L1 188.401V232.991L16.3506 257.844L26.5844 246.148Z" stroke="white"/>
<path d="M207.137 215.447H185.208L164.74 232.991V273.195L185.208 295.855H207.137L226.874 273.195V232.991L207.137 215.447Z" stroke="white"/>
<path d="M365.03 246.148V200.096L383.304 174.512L395 188.401V232.991L380.38 257.844L365.03 246.148Z" stroke="white"/>
</svg>
