<?xml version="1.0" standalone="no"?>
<!DOCTYPE svg PUBLIC "-//W3C//DTD SVG 20010904//EN"
 "http://www.w3.org/TR/2001/REC-SVG-20010904/DTD/svg10.dtd">
<svg version="1.0" xmlns="http://www.w3.org/2000/svg"
 width="500.000000pt" height="500.000000pt" viewBox="0 0 500.000000 500.000000"
 preserveAspectRatio="xMidYMid meet">
<metadata>
Created by potrace 1.14, written by Peter Selinger 2001-2017
</metadata>
<g transform="translate(0.000000,500.000000) scale(0.100000,-0.100000)"
fill="#000000" stroke="none">
<path d="M990 4350 c0 -25 4 -30 25 -30 20 0 25 -5 25 -25 0 -24 3 -25 55 -25
l55 0 0 -50 c0 -47 2 -50 25 -50 21 0 25 -5 25 -30 0 -25 4 -30 25 -30 24 0
25 -2 25 -75 0 -73 1 -75 25 -75 l25 0 0 -105 0 -105 25 0 c25 0 25 -1 25 -80
l0 -80 30 0 c29 0 30 -1 30 -50 0 -49 -1 -50 -30 -50 -25 0 -30 4 -30 25 0 20
-5 25 -25 25 -23 0 -25 -3 -25 -50 0 -47 2 -50 25 -50 20 0 25 -5 25 -25 0
-21 5 -25 30 -25 25 0 30 4 30 25 0 23 3 25 50 25 47 0 50 -2 50 -25 0 -25 1
-25 80 -25 79 0 80 0 80 25 0 20 5 25 25 25 20 0 25 -5 25 -25 0 -20 5 -25 25
-25 23 0 25 3 25 50 l0 50 50 0 c47 0 50 2 50 25 0 20 -5 25 -25 25 -20 0 -25
5 -25 25 0 20 -5 25 -25 25 -23 0 -25 -3 -25 -50 l0 -50 -80 0 c-79 0 -80 0
-80 -25 0 -23 -3 -25 -50 -25 -47 0 -50 2 -50 25 0 20 -5 25 -25 25 -23 0 -25
3 -25 50 0 47 -2 50 -25 50 -25 0 -25 1 -25 80 l0 80 -30 0 -30 0 0 105 0 105
-25 0 c-24 0 -25 2 -25 75 0 73 -1 75 -25 75 -21 0 -25 5 -25 30 0 25 -4 30
-25 30 -23 0 -25 3 -25 50 0 47 -2 50 -25 50 -20 0 -25 5 -25 25 0 24 -3 25
-55 25 -54 0 -55 0 -55 30 0 25 -4 30 -25 30 -21 0 -25 -5 -25 -30z"/>
<path d="M830 4165 l0 -105 -50 0 c-47 0 -50 -2 -50 -25 0 -23 3 -25 50 -25
47 0 50 2 50 25 0 21 5 25 30 25 l30 0 0 80 c0 79 0 80 25 80 20 0 25 5 25 25
0 24 -3 25 -55 25 l-55 0 0 -105z"/>
<path d="M3070 4245 c0 -20 -5 -25 -25 -25 -20 0 -25 -5 -25 -25 0 -20 -5 -25
-25 -25 -21 0 -25 -5 -25 -30 l0 -30 -80 0 c-79 0 -80 0 -80 -25 0 -20 -5 -25
-25 -25 -20 0 -25 -5 -25 -25 0 -20 5 -25 25 -25 20 0 25 5 25 25 0 25 1 25
80 25 79 0 80 0 80 25 0 20 5 25 25 25 21 0 25 5 25 30 0 25 4 30 25 30 24 0
25 -3 25 -55 l0 -55 55 0 55 0 0 55 c0 52 1 55 25 55 23 0 25 3 25 50 l0 50
-80 0 c-79 0 -80 0 -80 -25z m110 -50 c0 -21 -5 -25 -30 -25 -25 0 -30 4 -30
25 0 21 5 25 30 25 25 0 30 -4 30 -25z"/>
<path d="M570 4060 c0 -47 2 -50 25 -50 20 0 25 -5 25 -25 0 -21 5 -25 30 -25
25 0 30 -4 30 -25 0 -20 5 -25 25 -25 24 0 25 -3 25 -55 0 -52 1 -55 25 -55
l25 0 0 -105 0 -105 25 0 25 0 0 -130 0 -130 30 0 30 0 0 -130 0 -130 25 0
c23 0 25 -3 25 -50 0 -47 2 -50 25 -50 24 0 25 -3 25 -55 0 -52 -1 -55 -25
-55 -20 0 -25 -5 -25 -25 0 -20 -5 -25 -25 -25 -23 0 -25 -3 -25 -50 0 -47 2
-50 25 -50 20 0 25 -5 25 -25 l0 -25 105 0 105 0 0 25 0 25 -105 0 -105 0 0
50 c0 47 2 50 25 50 20 0 25 5 25 25 0 20 5 25 25 25 20 0 25 -5 25 -25 0 -20
5 -25 25 -25 20 0 25 -5 25 -25 0 -21 5 -25 30 -25 25 0 30 4 30 25 0 21 -5
25 -30 25 -25 0 -30 4 -30 25 0 21 5 25 30 25 27 0 30 3 30 30 0 27 -3 30 -30
30 -25 0 -30 4 -30 25 0 23 -3 25 -50 25 l-50 0 0 50 c0 47 -2 50 -25 50 l-25
0 0 160 0 160 -25 0 -25 0 0 100 0 100 -30 0 -30 0 0 105 0 105 -25 0 c-24 0
-25 3 -25 55 0 52 -1 55 -25 55 -20 0 -25 5 -25 25 0 20 -5 25 -25 25 -20 0
-25 5 -25 25 0 21 -5 25 -30 25 -29 0 -30 1 -30 50 0 47 -2 50 -25 50 -23 0
-25 -3 -25 -50z m520 -1170 c0 -25 -4 -30 -25 -30 -21 0 -25 5 -25 30 0 25 4
30 25 30 21 0 25 -5 25 -30z"/>
<path d="M3230 4060 l0 -50 50 0 c47 0 50 -2 50 -25 0 -23 -3 -25 -50 -25 -47
0 -50 -2 -50 -25 0 -25 -1 -25 -80 -25 l-80 0 0 -30 c0 -29 -1 -30 -50 -30
-47 0 -50 -2 -50 -25 0 -20 5 -25 25 -25 20 0 25 -5 25 -25 0 -23 -3 -25 -50
-25 -47 0 -50 -2 -50 -25 0 -23 3 -25 50 -25 47 0 50 2 50 25 0 20 5 25 25 25
25 0 25 -1 25 -80 0 -79 0 -80 25 -80 20 0 25 -5 25 -25 0 -24 -2 -25 -75 -25
-73 0 -75 -1 -75 -25 0 -25 -1 -25 -80 -25 -79 0 -80 0 -80 -25 0 -25 1 -25
80 -25 79 0 80 0 80 25 0 24 2 25 75 25 73 0 75 1 75 25 0 25 1 25 80 25 79 0
80 0 80 25 0 20 5 25 25 25 21 0 25 5 25 30 l0 30 130 0 130 0 0 -30 c0 -30 1
-30 55 -30 52 0 55 -1 55 -25 0 -20 5 -25 25 -25 20 0 25 5 25 25 0 20 -5 25
-25 25 -21 0 -25 5 -25 30 0 30 -1 30 -55 30 -52 0 -55 1 -55 25 l0 25 -155 0
-155 0 0 25 c0 23 -3 25 -50 25 -47 0 -50 2 -50 25 0 24 -3 25 -55 25 -52 0
-55 1 -55 25 0 25 1 25 80 25 l80 0 0 30 c0 29 1 30 50 30 47 0 50 2 50 25 0
21 5 25 30 25 29 0 30 1 30 50 l0 50 -55 0 c-52 0 -55 1 -55 25 0 20 -5 25
-25 25 -23 0 -25 -3 -25 -50z m-50 -335 c0 -23 3 -25 50 -25 47 0 50 -2 50
-25 0 -23 -3 -25 -50 -25 -49 0 -50 -1 -50 -30 0 -27 -3 -30 -30 -30 l-30 0 0
80 0 80 30 0 c25 0 30 -4 30 -25z"/>
<path d="M2660 3985 c0 -20 5 -25 25 -25 20 0 25 5 25 25 0 20 -5 25 -25 25
-20 0 -25 -5 -25 -25z"/>
<path d="M2970 3985 c0 -20 5 -25 25 -25 20 0 25 5 25 25 0 20 -5 25 -25 25
-20 0 -25 -5 -25 -25z"/>
<path d="M1040 3935 c0 -20 -5 -25 -25 -25 l-25 0 0 -130 0 -130 25 0 25 0 0
-130 0 -130 25 0 c25 0 25 -1 25 -80 l0 -80 30 0 c29 0 30 1 30 50 0 47 2 50
25 50 21 0 25 5 25 30 0 25 -4 30 -25 30 -20 0 -25 5 -25 25 0 21 -5 25 -30
25 l-30 0 0 130 0 130 -25 0 c-24 0 -25 2 -25 75 0 73 1 75 25 75 20 0 25 -5
25 -25 0 -21 5 -25 30 -25 l30 0 0 -75 c0 -73 1 -75 25 -75 l25 0 0 -105 0
-105 25 0 25 0 0 130 0 130 -25 0 c-23 0 -25 3 -25 50 0 47 -2 50 -25 50 -24
0 -25 3 -25 55 0 54 0 55 -30 55 -25 0 -30 4 -30 25 0 20 -5 25 -25 25 -20 0
-25 -5 -25 -25z"/>
<path d="M1770 3935 c0 -23 3 -25 50 -25 l50 0 0 -55 c0 -54 0 -55 30 -55 25
0 30 -4 30 -25 0 -20 5 -25 25 -25 23 0 25 -3 25 -50 0 -47 2 -50 25 -50 21 0
25 -5 25 -30 0 -29 -1 -30 -50 -30 -47 0 -50 -2 -50 -25 0 -23 3 -25 50 -25
47 0 50 -2 50 -25 0 -20 -5 -25 -25 -25 -20 0 -25 -5 -25 -25 0 -23 3 -25 50
-25 l50 0 0 -105 0 -105 55 0 55 0 0 -80 0 -80 50 0 50 0 0 -50 c0 -47 2 -50
25 -50 24 0 25 -3 25 -55 0 -52 -1 -55 -25 -55 -20 0 -25 -5 -25 -25 0 -20 5
-25 25 -25 20 0 25 5 25 25 0 21 5 25 30 25 l30 0 0 -130 0 -130 25 0 25 0 0
-100 0 -100 -25 0 c-24 0 -25 -3 -25 -55 0 -54 0 -55 -30 -55 -29 0 -30 -1
-30 -50 0 -47 -2 -50 -25 -50 -20 0 -25 -5 -25 -25 0 -20 -5 -25 -25 -25 -24
0 -25 -3 -25 -55 0 -52 1 -55 25 -55 20 0 25 5 25 25 0 20 5 25 25 25 24 0 25
3 25 55 0 54 0 55 30 55 25 0 30 4 30 25 0 20 5 25 25 25 20 0 25 -5 25 -25 0
-23 3 -25 50 -25 47 0 50 2 50 25 0 20 5 25 25 25 20 0 25 5 25 25 0 21 5 25
30 25 25 0 30 -4 30 -25 0 -23 3 -25 50 -25 l50 0 0 50 c0 47 -2 50 -25 50
-21 0 -25 5 -25 30 0 25 -4 30 -25 30 -21 0 -25 -5 -25 -30 0 -27 -3 -30 -30
-30 -25 0 -30 -4 -30 -25 0 -20 -5 -25 -25 -25 -20 0 -25 -5 -25 -25 0 -23 -3
-25 -50 -25 l-50 0 0 50 c0 47 2 50 25 50 l25 0 0 130 0 130 80 0 80 0 0 55 0
55 50 0 c47 0 50 2 50 25 0 23 -3 25 -50 25 -47 0 -50 -2 -50 -25 0 -21 -5
-25 -30 -25 -25 0 -30 4 -30 25 0 20 -5 25 -25 25 -20 0 -25 5 -25 25 0 20 -5
25 -25 25 -24 0 -25 3 -25 55 l0 55 -50 0 c-47 0 -50 2 -50 25 0 21 -5 25 -30
25 -29 0 -30 1 -30 50 0 47 -2 50 -25 50 -21 0 -25 5 -25 30 0 25 -4 30 -25
30 l-25 0 0 100 0 100 50 0 50 0 0 55 c0 54 0 55 30 55 l30 0 0 75 0 75 -30 0
c-27 0 -30 3 -30 30 0 27 3 30 30 30 25 0 30 4 30 25 0 20 5 25 25 25 23 0 25
3 25 50 0 47 -2 50 -25 50 -23 0 -25 -3 -25 -50 0 -49 -1 -50 -30 -50 -25 0
-30 -4 -30 -25 0 -20 -5 -25 -25 -25 -24 0 -25 -3 -25 -55 0 -52 1 -55 25 -55
23 0 25 -3 25 -50 0 -47 -2 -50 -25 -50 -20 0 -25 -5 -25 -25 0 -23 -3 -25
-50 -25 l-50 0 0 50 c0 47 -2 50 -25 50 -20 0 -25 5 -25 25 0 21 -5 25 -30 25
-30 0 -30 1 -30 55 0 52 -1 55 -25 55 -23 0 -25 3 -25 50 0 47 -2 50 -25 50
-20 0 -25 5 -25 25 0 20 -5 25 -25 25 -24 0 -25 3 -25 55 0 54 0 55 -30 55
-25 0 -30 4 -30 25 0 23 -3 25 -50 25 -47 0 -50 -2 -50 -25z m730 -1225 c0
-47 -2 -50 -25 -50 -23 0 -25 3 -25 50 0 47 2 50 25 50 23 0 25 -3 25 -50z
m100 -25 c0 -20 -5 -25 -25 -25 -20 0 -25 5 -25 25 0 20 5 25 25 25 20 0 25
-5 25 -25z"/>
<path d="M2660 3800 c0 -47 2 -50 25 -50 23 0 25 -3 25 -50 l0 -50 50 0 50 0
0 75 c0 73 1 75 25 75 20 0 25 5 25 25 0 20 -5 25 -25 25 -20 0 -25 -5 -25
-25 0 -20 -5 -25 -25 -25 -20 0 -25 -5 -25 -25 0 -20 -5 -25 -25 -25 -23 0
-25 3 -25 50 0 47 -2 50 -25 50 -23 0 -25 -3 -25 -50z"/>
<path d="M1720 3750 c0 -47 2 -50 25 -50 23 0 25 3 25 50 0 47 -2 50 -25 50
-23 0 -25 -3 -25 -50z"/>
<path d="M2660 3565 c0 -20 5 -25 25 -25 20 0 25 5 25 25 0 20 -5 25 -25 25
-20 0 -25 -5 -25 -25z"/>
<path d="M3440 3565 c0 -20 5 -25 25 -25 23 0 25 -3 25 -50 l0 -50 50 0 c47 0
50 2 50 25 0 20 -5 25 -25 25 -20 0 -25 5 -25 25 0 20 -5 25 -25 25 -20 0 -25
5 -25 25 0 20 -5 25 -25 25 -20 0 -25 -5 -25 -25z"/>
<path d="M2550 3415 c0 -23 -3 -25 -50 -25 l-50 0 0 -55 c0 -52 -1 -55 -25
-55 -20 0 -25 -5 -25 -25 0 -20 5 -25 25 -25 20 0 25 5 25 25 0 20 5 25 25 25
20 0 25 5 25 25 0 20 5 25 25 25 21 0 25 5 25 30 0 30 1 30 55 30 52 0 55 1
55 25 0 24 -3 25 -55 25 -52 0 -55 -1 -55 -25z"/>
<path d="M3230 3415 c0 -20 5 -25 25 -25 20 0 25 5 25 25 0 20 -5 25 -25 25
-20 0 -25 -5 -25 -25z"/>
<path d="M1250 3335 c0 -52 1 -55 25 -55 24 0 25 3 25 55 0 52 -1 55 -25 55
-24 0 -25 -3 -25 -55z"/>
<path d="M3390 3360 c0 -25 4 -30 25 -30 20 0 25 -5 25 -25 0 -24 2 -25 75
-25 73 0 75 -1 75 -25 0 -21 5 -25 30 -25 25 0 30 -4 30 -25 0 -20 5 -25 25
-25 20 0 25 -5 25 -25 0 -24 2 -25 75 -25 73 0 75 1 75 25 0 24 -2 25 -75 25
l-75 0 0 50 0 50 -55 0 c-52 0 -55 1 -55 25 0 24 -2 25 -75 25 l-75 0 0 30 c0
25 -4 30 -25 30 -21 0 -25 -5 -25 -30z"/>
<path d="M3750 3255 c0 -20 5 -25 25 -25 20 0 25 5 25 25 0 20 -5 25 -25 25
-20 0 -25 -5 -25 -25z"/>
<path d="M2340 3155 c0 -21 5 -25 30 -25 25 0 30 4 30 25 0 21 -5 25 -30 25
-25 0 -30 -4 -30 -25z"/>
<path d="M1410 3045 c0 -20 5 -25 25 -25 20 0 25 -5 25 -25 0 -24 -3 -25 -55
-25 -52 0 -55 -1 -55 -25 0 -21 5 -25 30 -25 27 0 30 -3 30 -30 0 -27 -3 -30
-30 -30 -25 0 -30 -4 -30 -25 0 -24 3 -25 55 -25 52 0 55 1 55 25 0 23 3 25
50 25 49 0 50 1 50 30 0 29 -1 30 -50 30 -47 0 -50 2 -50 25 0 20 5 25 25 25
23 0 25 3 25 50 l0 50 -50 0 c-47 0 -50 -2 -50 -25z"/>
<path d="M1770 3045 c0 -20 5 -25 25 -25 20 0 25 -5 25 -25 0 -20 5 -25 25
-25 20 0 25 5 25 25 0 20 -5 25 -25 25 -20 0 -25 5 -25 25 0 20 -5 25 -25 25
-20 0 -25 -5 -25 -25z"/>
<path d="M2080 3045 c0 -21 5 -25 30 -25 25 0 30 4 30 25 0 21 -5 25 -30 25
-25 0 -30 -4 -30 -25z"/>
<path d="M1250 2995 c0 -20 5 -25 25 -25 20 0 25 5 25 25 0 20 -5 25 -25 25
-20 0 -25 -5 -25 -25z"/>
<path d="M1980 2995 c0 -20 5 -25 25 -25 20 0 25 -5 25 -25 0 -20 5 -25 25
-25 21 0 25 -5 25 -30 0 -27 3 -30 30 -30 27 0 30 3 30 30 0 25 4 30 25 30 20
0 25 5 25 25 0 25 -1 25 -80 25 -79 0 -80 0 -80 25 0 20 -5 25 -25 25 -20 0
-25 -5 -25 -25z"/>
<path d="M1820 2890 c0 -25 4 -30 25 -30 23 0 25 -3 25 -50 0 -49 1 -50 30
-50 25 0 30 -4 30 -25 0 -20 5 -25 25 -25 20 0 25 5 25 25 0 20 -5 25 -25 25
-23 0 -25 3 -25 50 0 49 -1 50 -30 50 -27 0 -30 3 -30 30 0 25 -4 30 -25 30
-21 0 -25 -5 -25 -30z"/>
<path d="M2550 2890 c0 -30 1 -30 55 -30 54 0 55 0 55 30 0 30 -1 30 -55 30
-54 0 -55 0 -55 -30z"/>
<path d="M2710 2835 c0 -20 5 -25 25 -25 20 0 25 5 25 25 0 20 -5 25 -25 25
-20 0 -25 -5 -25 -25z"/>
<path d="M1200 2785 c0 -20 5 -25 25 -25 20 0 25 5 25 25 0 20 -5 25 -25 25
-20 0 -25 -5 -25 -25z"/>
<path d="M2080 2785 c0 -20 -5 -25 -25 -25 -23 0 -25 -3 -25 -50 0 -47 2 -50
25 -50 21 0 25 -5 25 -30 0 -27 3 -30 30 -30 25 0 30 -4 30 -25 0 -20 5 -25
25 -25 24 0 25 3 25 55 0 52 -1 55 -25 55 -20 0 -25 5 -25 25 0 21 -5 25 -30
25 -25 0 -30 4 -30 25 0 21 5 25 30 25 25 0 30 4 30 25 0 21 -5 25 -30 25 -25
0 -30 -4 -30 -25z"/>
<path d="M1720 2735 c0 -24 -3 -25 -55 -25 l-55 0 0 -80 0 -80 -50 0 c-47 0
-50 -2 -50 -25 0 -20 5 -25 25 -25 l25 0 0 -130 0 -130 -155 0 -155 0 0 -25 0
-25 180 0 180 0 0 50 c0 49 1 50 30 50 25 0 30 -4 30 -25 0 -20 5 -25 25 -25
20 0 25 5 25 25 0 20 5 25 25 25 20 0 25 5 25 25 0 20 5 25 25 25 21 0 25 5
25 30 0 25 -4 30 -25 30 -21 0 -25 -5 -25 -30 0 -25 -4 -30 -25 -30 -24 0 -25
3 -25 55 0 52 -1 55 -25 55 -20 0 -25 5 -25 25 0 20 5 25 25 25 23 0 25 3 25
50 0 47 2 50 25 50 21 0 25 5 25 30 0 25 -4 30 -25 30 -20 0 -25 5 -25 25 0
20 5 25 25 25 20 0 25 5 25 25 0 20 -5 25 -25 25 -20 0 -25 -5 -25 -25z m-50
-210 c0 -21 -5 -25 -30 -25 -25 0 -30 4 -30 25 0 21 5 25 30 25 25 0 30 -4 30
-25z m50 -210 c0 -20 -5 -25 -25 -25 -20 0 -25 5 -25 25 0 20 5 25 25 25 20 0
25 -5 25 -25z"/>
<path d="M1820 2630 c0 -25 4 -30 25 -30 21 0 25 5 25 30 0 25 -4 30 -25 30
-21 0 -25 -5 -25 -30z"/>
<path d="M3070 2630 l0 -30 105 0 105 0 0 -25 c0 -25 1 -25 80 -25 79 0 80 0
80 -25 0 -20 5 -25 25 -25 20 0 25 -5 25 -25 0 -23 3 -25 50 -25 47 0 50 -2
50 -25 0 -21 5 -25 30 -25 27 0 30 -3 30 -30 l0 -30 75 0 75 0 0 30 c0 29 -1
30 -50 30 -47 0 -50 2 -50 25 0 24 -3 25 -55 25 -52 0 -55 1 -55 25 0 23 -3
25 -50 25 -47 0 -50 2 -50 25 0 20 -5 25 -25 25 -20 0 -25 5 -25 25 0 24 -3
25 -55 25 -54 0 -55 0 -55 30 l0 30 -130 0 -130 0 0 -30z"/>
<path d="M1250 2575 c0 -20 5 -25 25 -25 20 0 25 5 25 25 0 20 -5 25 -25 25
-20 0 -25 -5 -25 -25z"/>
<path d="M2920 2575 c0 -20 5 -25 25 -25 20 0 25 5 25 25 0 20 -5 25 -25 25
-20 0 -25 -5 -25 -25z"/>
<path d="M2290 2445 l0 -105 25 0 25 0 0 105 0 105 -25 0 -25 0 0 -105z"/>
<path d="M2710 2525 c0 -20 5 -25 25 -25 20 0 25 5 25 25 0 20 -5 25 -25 25
-20 0 -25 -5 -25 -25z"/>
<path d="M1870 2420 l0 -80 30 0 c25 0 30 -4 30 -25 0 -20 5 -25 25 -25 20 0
25 -5 25 -25 0 -20 5 -25 25 -25 20 0 25 -5 25 -25 0 -20 5 -25 25 -25 20 0
25 -5 25 -25 0 -20 -5 -25 -25 -25 -21 0 -25 -5 -25 -30 0 -25 -4 -30 -25 -30
-20 0 -25 -5 -25 -25 0 -25 1 -25 80 -25 79 0 80 0 80 -25 0 -20 5 -25 25 -25
20 0 25 5 25 25 0 20 -5 25 -25 25 -20 0 -25 5 -25 25 0 20 5 25 25 25 21 0
25 5 25 30 0 25 -4 30 -25 30 -20 0 -25 5 -25 25 0 21 -5 25 -30 25 -25 0 -30
4 -30 25 0 21 5 25 30 25 25 0 30 4 30 25 0 24 -3 25 -55 25 -52 0 -55 1 -55
25 0 20 -5 25 -25 25 -21 0 -25 5 -25 30 0 25 -4 30 -25 30 -23 0 -25 3 -25
50 0 49 -1 50 -30 50 l-30 0 0 -80z m270 -310 c0 -27 -3 -30 -30 -30 -27 0
-30 3 -30 30 0 27 3 30 30 30 27 0 30 -3 30 -30z"/>
<path d="M1250 2425 c0 -23 3 -25 50 -25 47 0 50 2 50 25 0 23 -3 25 -50 25
-47 0 -50 -2 -50 -25z"/>
<path d="M1410 2425 c0 -23 3 -25 50 -25 47 0 50 2 50 25 0 23 -3 25 -50 25
-47 0 -50 -2 -50 -25z"/>
<path d="M2760 2425 c0 -20 5 -25 25 -25 20 0 25 5 25 25 0 20 -5 25 -25 25
-20 0 -25 -5 -25 -25z"/>
<path d="M2140 2370 c0 -25 4 -30 25 -30 21 0 25 5 25 30 0 25 -4 30 -25 30
-21 0 -25 -5 -25 -30z"/>
<path d="M3070 2315 c0 -20 5 -25 25 -25 20 0 25 5 25 25 0 20 -5 25 -25 25
-20 0 -25 -5 -25 -25z"/>
<path d="M3280 2315 c0 -20 5 -25 25 -25 20 0 25 5 25 25 0 20 -5 25 -25 25
-20 0 -25 -5 -25 -25z"/>
<path d="M1040 2240 c0 -47 -2 -50 -25 -50 -24 0 -25 -3 -25 -55 0 -52 -1 -55
-25 -55 -20 0 -25 -5 -25 -25 0 -20 -5 -25 -25 -25 -20 0 -25 -5 -25 -25 0
-21 -5 -25 -30 -25 -29 0 -30 -1 -30 -50 0 -47 -2 -50 -25 -50 -24 0 -25 -3
-25 -55 0 -52 1 -55 25 -55 20 0 25 -5 25 -25 0 -21 5 -25 30 -25 25 0 30 -4
30 -25 0 -23 3 -25 50 -25 49 0 50 -1 50 -30 l0 -30 130 0 130 0 0 -25 c0 -20
5 -25 25 -25 24 0 25 3 25 55 l0 55 -155 0 -155 0 0 25 c0 23 -3 25 -50 25
-47 0 -50 2 -50 25 0 21 -5 25 -30 25 -30 0 -30 1 -30 55 0 54 0 55 30 55 29
0 30 1 30 50 l0 50 50 0 c47 0 50 2 50 25 0 20 5 25 25 25 25 0 25 1 25 80 0
79 0 80 25 80 23 0 25 3 25 50 0 47 -2 50 -25 50 -23 0 -25 -3 -25 -50z"/>
<path d="M4170 2265 c0 -21 -5 -25 -30 -25 -29 0 -30 -1 -30 -50 l0 -50 80 0
80 0 0 50 c0 47 -2 50 -25 50 -20 0 -25 5 -25 25 0 20 -5 25 -25 25 -20 0 -25
-5 -25 -25z"/>
<path d="M3280 2215 c0 -25 1 -25 80 -25 79 0 80 0 80 25 0 25 -1 25 -80 25
-79 0 -80 0 -80 -25z"/>
<path d="M2970 2165 c0 -20 5 -25 25 -25 24 0 25 -3 25 -55 0 -52 1 -55 25
-55 25 0 25 1 25 80 l0 80 -50 0 c-47 0 -50 -2 -50 -25z"/>
<path d="M4010 2165 c0 -20 5 -25 25 -25 20 0 25 5 25 25 0 20 -5 25 -25 25
-20 0 -25 -5 -25 -25z"/>
<path d="M1250 2110 l0 -30 80 0 80 0 0 30 0 30 -80 0 -80 0 0 -30z"/>
<path d="M3180 2085 c0 -52 1 -55 25 -55 20 0 25 -5 25 -25 0 -20 5 -25 25
-25 23 0 25 3 25 50 0 47 -2 50 -25 50 -21 0 -25 5 -25 30 0 25 -4 30 -25 30
-24 0 -25 -3 -25 -55z"/>
<path d="M2450 2055 c0 -20 5 -25 25 -25 20 0 25 -5 25 -25 0 -23 3 -25 50
-25 47 0 50 -2 50 -25 0 -21 5 -25 30 -25 25 0 30 -4 30 -25 0 -23 3 -25 50
-25 49 0 50 -1 50 -30 0 -29 1 -30 50 -30 l50 0 0 -50 c0 -49 1 -50 30 -50 25
0 30 -4 30 -25 0 -23 3 -25 50 -25 49 0 50 -1 50 -30 l0 -30 105 0 105 0 0
-25 c0 -20 5 -25 25 -25 20 0 25 -5 25 -25 0 -24 3 -25 55 -25 52 0 55 -1 55
-25 0 -23 3 -25 50 -25 47 0 50 2 50 25 0 23 -3 25 -50 25 -47 0 -50 2 -50 25
0 21 -5 25 -30 25 -25 0 -30 4 -30 25 0 23 -3 25 -50 25 -49 0 -50 1 -50 30
l0 30 -80 0 c-79 0 -80 0 -80 25 0 24 -2 25 -75 25 l-75 0 0 50 c0 49 -1 50
-30 50 -27 0 -30 3 -30 30 0 29 -1 30 -50 30 -47 0 -50 2 -50 25 0 23 -3 25
-50 25 -47 0 -50 2 -50 25 0 21 -5 25 -30 25 -25 0 -30 4 -30 25 0 23 -3 25
-50 25 -47 0 -50 2 -50 25 0 20 -5 25 -25 25 -20 0 -25 -5 -25 -25z"/>
<path d="M1870 2005 c0 -20 -5 -25 -25 -25 -20 0 -25 -5 -25 -25 0 -20 -5 -25
-25 -25 -24 0 -25 -3 -25 -55 l0 -55 -50 0 c-47 0 -50 -2 -50 -25 0 -21 -5
-25 -30 -25 -25 0 -30 -4 -30 -25 0 -23 -3 -25 -50 -25 -47 0 -50 -2 -50 -25
0 -20 -5 -25 -25 -25 -21 0 -25 -5 -25 -30 0 -25 4 -30 25 -30 21 0 25 5 25
30 l0 30 80 0 80 0 0 -80 0 -80 -30 0 -30 0 0 -105 0 -105 55 0 c52 0 55 1 55
25 0 20 5 25 25 25 21 0 25 5 25 30 0 25 4 30 25 30 20 0 25 5 25 25 0 20 5
25 25 25 20 0 25 5 25 25 0 21 5 25 30 25 25 0 30 4 30 25 0 20 5 25 25 25 20
0 25 5 25 25 0 20 5 25 25 25 21 0 25 5 25 30 0 25 4 30 25 30 24 0 25 -3 25
-55 0 -52 -1 -55 -25 -55 l-25 0 0 -105 0 -105 55 0 c54 0 55 0 55 30 0 25 4
30 25 30 24 0 25 2 25 75 0 73 1 75 25 75 25 0 25 1 25 80 0 79 0 80 25 80 20
0 25 5 25 25 0 20 5 25 25 25 20 0 25 5 25 25 0 24 3 25 55 25 52 0 55 -1 55
-25 0 -20 5 -25 25 -25 20 0 25 -5 25 -25 0 -20 5 -25 25 -25 20 0 25 -5 25
-25 0 -20 5 -25 25 -25 21 0 25 -5 25 -30 0 -27 3 -30 30 -30 25 0 30 -4 30
-25 0 -20 5 -25 25 -25 20 0 25 -5 25 -25 0 -20 5 -25 25 -25 23 0 25 -3 25
-50 0 -47 2 -50 25 -50 21 0 25 -5 25 -30 0 -25 4 -30 25 -30 20 0 25 -5 25
-25 0 -21 5 -25 30 -25 25 0 30 -4 30 -25 0 -20 5 -25 25 -25 20 0 25 -5 25
-25 0 -20 5 -25 25 -25 20 0 25 -5 25 -25 0 -23 3 -25 50 -25 49 0 50 -1 50
-30 0 -27 3 -30 30 -30 25 0 30 -4 30 -25 0 -20 5 -25 25 -25 20 0 25 -5 25
-25 0 -23 3 -25 50 -25 47 0 50 -2 50 -25 0 -21 5 -25 30 -25 25 0 30 -4 30
-25 0 -23 3 -25 50 -25 49 0 50 -1 50 -30 l0 -30 105 0 105 0 0 30 0 30 75 0
75 0 0 50 c0 47 -2 50 -25 50 -20 0 -25 5 -25 25 l0 25 -105 0 -105 0 0 25 0
25 105 0 105 0 0 30 c0 25 4 30 25 30 23 0 25 3 25 50 l0 50 -50 0 c-47 0 -50
2 -50 25 0 25 -1 25 -80 25 -79 0 -80 0 -80 -25 0 -25 1 -25 80 -25 79 0 80 0
80 -25 0 -20 5 -25 25 -25 20 0 25 -5 25 -25 0 -23 -3 -25 -50 -25 -47 0 -50
2 -50 25 0 25 -1 25 -80 25 l-80 0 0 75 0 75 -50 0 c-49 0 -50 1 -50 30 0 30
-1 30 -55 30 -54 0 -55 0 -55 -30 0 -25 -4 -30 -25 -30 -21 0 -25 5 -25 30 0
25 -4 30 -25 30 -21 0 -25 -5 -25 -30 0 -25 4 -30 25 -30 20 0 25 -5 25 -25 0
-24 3 -25 55 -25 52 0 55 -1 55 -25 0 -20 5 -25 25 -25 20 0 25 5 25 25 0 20
5 25 25 25 24 0 25 -2 25 -75 0 -73 -1 -75 -25 -75 -24 0 -25 -3 -25 -55 0
-52 1 -55 25 -55 20 0 25 -5 25 -25 l0 -25 155 0 155 0 0 -25 c0 -24 -2 -25
-75 -25 -73 0 -75 -1 -75 -25 0 -25 -1 -25 -80 -25 -79 0 -80 0 -80 25 0 23
-3 25 -50 25 -47 0 -50 2 -50 25 0 21 -5 25 -30 25 -25 0 -30 4 -30 25 0 23
-3 25 -50 25 -47 0 -50 2 -50 25 0 20 -5 25 -25 25 -21 0 -25 5 -25 30 0 27
-3 30 -30 30 -25 0 -30 4 -30 25 0 23 -3 25 -50 25 -47 0 -50 2 -50 25 0 20
-5 25 -25 25 -20 0 -25 5 -25 25 0 20 -5 25 -25 25 -20 0 -25 5 -25 25 0 21
-5 25 -30 25 -27 0 -30 3 -30 30 0 25 -4 30 -25 30 -23 0 -25 3 -25 50 0 47
-2 50 -25 50 -20 0 -25 5 -25 25 0 20 -5 25 -25 25 -20 0 -25 5 -25 25 0 20
-5 25 -25 25 -21 0 -25 5 -25 30 0 27 -3 30 -30 30 -25 0 -30 4 -30 25 0 20
-5 25 -25 25 -20 0 -25 5 -25 25 0 20 -5 25 -25 25 -20 0 -25 5 -25 25 0 20
-5 25 -25 25 -21 0 -25 5 -25 30 0 25 4 30 25 30 20 0 25 5 25 25 0 20 -5 25
-25 25 -20 0 -25 5 -25 25 0 20 -5 25 -25 25 -20 0 -25 5 -25 25 0 21 -5 25
-30 25 -25 0 -30 -4 -30 -25 0 -21 5 -25 30 -25 25 0 30 -4 30 -25 0 -20 5
-25 25 -25 20 0 25 -5 25 -25 l0 -25 -105 0 -105 0 0 -55 c0 -52 -1 -55 -25
-55 -20 0 -25 5 -25 25 0 20 -5 25 -25 25 -24 0 -25 3 -25 55 l0 55 -80 0
c-79 0 -80 0 -80 -25 0 -20 -5 -25 -25 -25 -24 0 -25 -3 -25 -55 0 -54 0 -55
-30 -55 -25 0 -30 -4 -30 -25 0 -21 5 -25 30 -25 l30 0 0 -80 0 -80 -30 0
c-25 0 -30 -4 -30 -25 0 -20 -5 -25 -25 -25 -20 0 -25 -5 -25 -25 0 -20 -5
-25 -25 -25 -20 0 -25 -5 -25 -25 0 -20 -5 -25 -25 -25 -21 0 -25 -5 -25 -30
0 -25 -4 -30 -25 -30 -25 0 -25 1 -25 80 0 79 0 80 25 80 23 0 25 3 25 50 l0
50 50 0 50 0 0 55 c0 52 -1 55 -25 55 -20 0 -25 5 -25 25 0 20 5 25 25 25 24
0 25 3 25 55 0 52 1 55 25 55 20 0 25 5 25 25 0 21 5 25 30 25 29 0 30 1 30
50 0 49 -1 50 -30 50 -25 0 -30 -4 -30 -25z m210 -155 c0 -27 3 -30 30 -30 29
0 30 -1 30 -50 0 -47 2 -50 25 -50 25 0 25 -1 25 -80 0 -79 0 -80 -25 -80 -24
0 -25 -2 -25 -75 l0 -75 -30 0 -30 0 0 75 0 75 30 0 30 0 0 80 0 80 -30 0
c-29 0 -30 1 -30 50 0 47 -2 50 -25 50 -23 0 -25 -3 -25 -50 0 -47 -2 -50 -25
-50 -23 0 -25 3 -25 50 0 47 2 50 25 50 21 0 25 5 25 30 0 25 4 30 25 30 21 0
25 -5 25 -30z m-360 -155 c0 -20 -5 -25 -25 -25 -20 0 -25 5 -25 25 0 20 5 25
25 25 20 0 25 -5 25 -25z m1870 -575 c0 -25 -4 -30 -25 -30 -21 0 -25 5 -25
30 0 25 4 30 25 30 21 0 25 -5 25 -30z"/>
<path d="M3960 1930 c0 -47 -2 -50 -25 -50 -21 0 -25 -5 -25 -30 0 -25 4 -30
25 -30 20 0 25 -5 25 -25 0 -20 -5 -25 -25 -25 -20 0 -25 -5 -25 -25 0 -21 -5
-25 -30 -25 -25 0 -30 -4 -30 -25 0 -25 1 -25 80 -25 79 0 80 0 80 25 0 23 3
25 50 25 47 0 50 2 50 25 0 21 5 25 30 25 25 0 30 4 30 25 0 21 -5 25 -30 25
-27 0 -30 3 -30 30 0 25 -4 30 -25 30 -20 0 -25 5 -25 25 0 20 -5 25 -25 25
-20 0 -25 5 -25 25 0 20 -5 25 -25 25 -23 0 -25 -3 -25 -50z m100 -80 c0 -25
4 -30 25 -30 20 0 25 -5 25 -25 0 -23 -3 -25 -50 -25 -47 0 -50 2 -50 25 0 20
-5 25 -25 25 -21 0 -25 5 -25 30 0 29 1 30 50 30 49 0 50 -1 50 -30z"/>
<path d="M4270 1930 c0 -47 2 -50 25 -50 23 0 25 3 25 50 0 47 -2 50 -25 50
-23 0 -25 -3 -25 -50z"/>
<path d="M1200 1850 l0 -30 130 0 130 0 0 30 0 30 -130 0 -130 0 0 -30z"/>
<path d="M4220 1695 c0 -20 5 -25 25 -25 20 0 25 5 25 25 0 20 -5 25 -25 25
-20 0 -25 -5 -25 -25z"/>
<path d="M4110 1585 c0 -24 3 -25 55 -25 52 0 55 1 55 25 0 24 -3 25 -55 25
-52 0 -55 -1 -55 -25z"/>
<path d="M3330 1175 c0 -21 5 -25 30 -25 25 0 30 4 30 25 0 21 -5 25 -30 25
-25 0 -30 -4 -30 -25z"/>
</g>
</svg>
